<?xml version="1.0" encoding="UTF-8" standalone="no"?>
<!DOCTYPE svg PUBLIC "-//W3C//DTD SVG 1.1//EN"
 "http://www.w3.org/Graphics/SVG/1.1/DTD/svg11.dtd">
<!-- Generated by graphviz version 2.38.0 (20140413.2041)
 -->
<!-- Title: %3 Pages: 1 -->
<svg width="506pt" height="348pt"
 viewBox="0.00 0.00 505.55 348.00" xmlns="http://www.w3.org/2000/svg" xmlns:xlink="http://www.w3.org/1999/xlink">
<g id="graph0" class="graph" transform="scale(1 1) rotate(0) translate(4 344)">
<title>%3</title>
<polygon fill="#3f3f3f" stroke="none" points="-4,4 -4,-344 501.551,-344 501.551,4 -4,4"/>
<text text-anchor="middle" x="248.776" y="-7.2" font-family="Times,serif" font-size="16.00" fill="white">Network Map</text>
<!-- R4 -->
<g id="node1" class="node"><title>R4</title>
<polygon fill="#006699" stroke="#006699" points="84.6314,-218 8.83832,-218 8.83832,-146 84.6314,-146 84.6314,-218"/>
<text text-anchor="middle" x="46.7349" y="-177.8" font-family="Helvetica,sans-Serif" font-size="14.00" fill="white">R4</text>
</g>
<!-- R5 -->
<g id="node2" class="node"><title>R5</title>
<polygon fill="#006699" stroke="#006699" points="146.631,-340 70.8383,-340 70.8383,-268 146.631,-268 146.631,-340"/>
<text text-anchor="middle" x="108.735" y="-299.8" font-family="Helvetica,sans-Serif" font-size="14.00" fill="white">R5</text>
</g>
<!-- R4&#45;&#45;R5 -->
<g id="edge6" class="edge"><title>R4&#45;&#45;R5</title>
<path fill="none" stroke="green" stroke-dasharray="5,2" d="M42.0068,-218.314C41.9766,-228.915 43.4002,-240.297 47.9185,-250 53.003,-260.919 61.5348,-270.483 70.6238,-278.37"/>
<text text-anchor="middle" x="99.1431" y="-238.8" font-family="Courier,monospace" font-size="14.00" fill="white"> &#160;&#160;&#160;&#160;&#160;&#160;&#160;&#160;&#160;&#160;&#160;</text>
<text text-anchor="middle" x="49.6204" y="-267.17" font-family="Courier,monospace" font-size="14.00" fill="white">Fa0/1</text>
<text text-anchor="middle" x="21.0034" y="-221.114" font-family="Courier,monospace" font-size="14.00" fill="white">Fa0/1</text>
</g>
<!-- R6 -->
<g id="node3" class="node"><title>R6</title>
<polygon fill="#006699" stroke="#006699" points="332.631,-340 256.838,-340 256.838,-268 332.631,-268 332.631,-340"/>
<text text-anchor="middle" x="294.735" y="-299.8" font-family="Helvetica,sans-Serif" font-size="14.00" fill="white">R6</text>
</g>
<!-- R1 -->
<g id="node4" class="node"><title>R1</title>
<polygon fill="#006699" stroke="#006699" points="208.631,-218 132.838,-218 132.838,-146 208.631,-146 208.631,-218"/>
<text text-anchor="middle" x="170.735" y="-177.8" font-family="Helvetica,sans-Serif" font-size="14.00" fill="white">R1</text>
</g>
<!-- R2 -->
<g id="node5" class="node"><title>R2</title>
<polygon fill="#006699" stroke="#006699" points="332.631,-218 256.838,-218 256.838,-146 332.631,-146 332.631,-218"/>
<text text-anchor="middle" x="294.735" y="-177.8" font-family="Helvetica,sans-Serif" font-size="14.00" fill="white">R2</text>
</g>
<!-- R2&#45;&#45;R5 -->
<g id="edge2" class="edge"><title>R2&#45;&#45;R5</title>
<path fill="none" stroke="green" stroke-dasharray="5,2" d="M256.751,-199.705C236.335,-209.296 211.082,-222.163 189.918,-236 175.235,-245.6 160.148,-257.422 147.024,-268.45"/>
<text text-anchor="middle" x="241.143" y="-238.8" font-family="Courier,monospace" font-size="14.00" fill="white"> &#160;&#160;&#160;&#160;&#160;&#160;&#160;&#160;&#160;&#160;&#160;</text>
<text text-anchor="middle" x="168.028" y="-257.25" font-family="Courier,monospace" font-size="14.00" fill="white">Fa0/0</text>
<text text-anchor="middle" x="235.747" y="-188.505" font-family="Courier,monospace" font-size="14.00" fill="white">Fa0/1</text>
</g>
<!-- R2&#45;&#45;R6 -->
<g id="edge3" class="edge"><title>R2&#45;&#45;R6</title>
<path fill="none" stroke="green" stroke-dasharray="5,2" d="M294.735,-218.032C294.735,-233.666 294.735,-252.053 294.735,-267.717"/>
<text text-anchor="middle" x="345.143" y="-238.8" font-family="Courier,monospace" font-size="14.00" fill="white"> &#160;&#160;&#160;&#160;&#160;&#160;&#160;&#160;&#160;&#160;&#160;</text>
<text text-anchor="middle" x="273.731" y="-256.517" font-family="Courier,monospace" font-size="14.00" fill="white">Fa0/1</text>
<text text-anchor="middle" x="273.731" y="-220.832" font-family="Courier,monospace" font-size="14.00" fill="white">Fa0/2</text>
</g>
<!-- R3 -->
<g id="node6" class="node"><title>R3</title>
<polygon fill="#006699" stroke="#006699" points="456.631,-218 380.838,-218 380.838,-146 456.631,-146 456.631,-218"/>
<text text-anchor="middle" x="418.735" y="-177.8" font-family="Helvetica,sans-Serif" font-size="14.00" fill="white">R3</text>
</g>
<!-- SW1 -->
<g id="node7" class="node"><title>SW1</title>
<polygon fill="#006699" stroke="#006699" points="277.073,-96 188.396,-96 188.396,-24 277.073,-24 277.073,-96"/>
<text text-anchor="middle" x="232.735" y="-55.8" font-family="Helvetica,sans-Serif" font-size="14.00" fill="white">SW1</text>
</g>
<!-- SW1&#45;&#45;R4 -->
<g id="edge4" class="edge"><title>SW1&#45;&#45;R4</title>
<path fill="none" stroke="green" stroke-dasharray="5,2" d="M188.449,-63.0443C149.923,-67.236 95.3249,-79.3977 62.9185,-114 54.9022,-122.559 50.6517,-134.384 48.4586,-145.72"/>
<text text-anchor="middle" x="114.143" y="-116.8" font-family="Courier,monospace" font-size="14.00" fill="white"> &#160;&#160;&#160;&#160;&#160;&#160;&#160;&#160;&#160;&#160;&#160;</text>
<text text-anchor="middle" x="27.4552" y="-134.52" font-family="Courier,monospace" font-size="14.00" fill="white">Fa0/0</text>
<text text-anchor="middle" x="167.446" y="-51.8443" font-family="Courier,monospace" font-size="14.00" fill="white">Fa0/4</text>
</g>
<!-- SW1&#45;&#45;R1 -->
<g id="edge1" class="edge"><title>SW1&#45;&#45;R1</title>
<path fill="none" stroke="green" stroke-dasharray="5,2" d="M188.409,-91.4009C181.753,-98.039 175.821,-105.621 171.918,-114 167.4,-123.703 165.977,-135.085 166.007,-145.686"/>
<text text-anchor="middle" x="223.143" y="-116.8" font-family="Courier,monospace" font-size="14.00" fill="white"> &#160;&#160;&#160;&#160;&#160;&#160;&#160;&#160;&#160;&#160;&#160;</text>
<text text-anchor="middle" x="145.003" y="-134.486" font-family="Courier,monospace" font-size="14.00" fill="white">Fa0/0</text>
<text text-anchor="middle" x="167.406" y="-80.2009" font-family="Courier,monospace" font-size="14.00" fill="white">Fa0/1</text>
</g>
<!-- SW1&#45;&#45;R2 -->
<g id="edge5" class="edge"><title>SW1&#45;&#45;R2</title>
<path fill="none" stroke="green" stroke-dasharray="5,2" d="M261.74,-96.1452C265.759,-101.909 269.583,-107.973 272.735,-114 277.898,-123.872 282.171,-135.192 285.533,-145.683"/>
<text text-anchor="middle" x="329.143" y="-116.8" font-family="Courier,monospace" font-size="14.00" fill="white"> &#160;&#160;&#160;&#160;&#160;&#160;&#160;&#160;&#160;&#160;&#160;</text>
<text text-anchor="middle" x="264.53" y="-134.483" font-family="Courier,monospace" font-size="14.00" fill="white">Fa0/0</text>
<text text-anchor="middle" x="240.737" y="-98.9452" font-family="Courier,monospace" font-size="14.00" fill="white">Fa0/2</text>
</g>
<!-- SW1&#45;&#45;R3 -->
<g id="edge7" class="edge"><title>SW1&#45;&#45;R3</title>
<path fill="none" stroke="green" stroke-dasharray="5,2" d="M277.124,-67.5929C309.795,-74.4135 353.59,-87.9071 383.735,-114 393.558,-122.503 401.018,-134.449 406.473,-145.904"/>
<text text-anchor="middle" x="447.143" y="-116.8" font-family="Courier,monospace" font-size="14.00" fill="white"> &#160;&#160;&#160;&#160;&#160;&#160;&#160;&#160;&#160;&#160;&#160;</text>
<text text-anchor="middle" x="385.47" y="-134.704" font-family="Courier,monospace" font-size="14.00" fill="white">Fa0/0</text>
<text text-anchor="middle" x="298.127" y="-56.3929" font-family="Courier,monospace" font-size="14.00" fill="white">Fa0/3</text>
</g>
</g>
</svg>
